<mxfile host="app.diagrams.net" modified="2023-05-12T13:15:09.048Z" agent="Mozilla/5.0 (Windows NT 10.0; Win64; x64) AppleWebKit/537.36 (KHTML, like Gecko) Chrome/112.0.0.0 Safari/537.36" etag="oqALYQU2Xi6Bf0ZPsj2N" version="21.2.4" type="device">
  <diagram name="Page-1" id="kmtY3CubUaqtrr0qf6mO">
    <mxGraphModel dx="2049" dy="1056" grid="1" gridSize="10" guides="1" tooltips="1" connect="1" arrows="1" fold="1" page="1" pageScale="1" pageWidth="850" pageHeight="1100" math="0" shadow="0">
      <root>
        <mxCell id="0" />
        <mxCell id="1" parent="0" />
        <mxCell id="24yQI8a9KALRh25tp-s9-2" value="" style="rounded=0;whiteSpace=wrap;html=1;fillColor=#f8cecc;strokeColor=#b85450;" vertex="1" parent="1">
          <mxGeometry x="60" y="120" width="10" height="960" as="geometry" />
        </mxCell>
        <mxCell id="24yQI8a9KALRh25tp-s9-3" value="MAIN Thread" style="text;html=1;strokeColor=none;fillColor=none;align=center;verticalAlign=middle;whiteSpace=wrap;rounded=0;" vertex="1" parent="1">
          <mxGeometry x="80" y="120" width="60" height="30" as="geometry" />
        </mxCell>
        <mxCell id="24yQI8a9KALRh25tp-s9-4" value="" style="rounded=0;whiteSpace=wrap;html=1;fillColor=#fff2cc;strokeColor=#d6b656;" vertex="1" parent="1">
          <mxGeometry x="250" y="120" width="10" height="960" as="geometry" />
        </mxCell>
        <mxCell id="24yQI8a9KALRh25tp-s9-5" value="RADAR Thead" style="text;html=1;strokeColor=none;fillColor=none;align=center;verticalAlign=middle;whiteSpace=wrap;rounded=0;" vertex="1" parent="1">
          <mxGeometry x="270" y="120" width="60" height="30" as="geometry" />
        </mxCell>
        <mxCell id="24yQI8a9KALRh25tp-s9-6" value="" style="rounded=0;whiteSpace=wrap;html=1;fillColor=#fff2cc;strokeColor=#d6b656;" vertex="1" parent="1">
          <mxGeometry x="400" y="120" width="10" height="960" as="geometry" />
        </mxCell>
        <mxCell id="24yQI8a9KALRh25tp-s9-7" value="Collision Detection Thread" style="text;html=1;strokeColor=none;fillColor=none;align=center;verticalAlign=middle;whiteSpace=wrap;rounded=0;" vertex="1" parent="1">
          <mxGeometry x="420" y="120" width="60" height="40" as="geometry" />
        </mxCell>
        <mxCell id="24yQI8a9KALRh25tp-s9-8" value="" style="rounded=0;whiteSpace=wrap;html=1;fillColor=#e1d5e7;strokeColor=#9673a6;" vertex="1" parent="1">
          <mxGeometry x="560" y="120" width="10" height="960" as="geometry" />
        </mxCell>
        <mxCell id="24yQI8a9KALRh25tp-s9-9" value="Headlight Control Thread" style="text;html=1;strokeColor=none;fillColor=none;align=center;verticalAlign=middle;whiteSpace=wrap;rounded=0;" vertex="1" parent="1">
          <mxGeometry x="580" y="120" width="60" height="40" as="geometry" />
        </mxCell>
        <mxCell id="24yQI8a9KALRh25tp-s9-10" value="" style="rounded=0;whiteSpace=wrap;html=1;fillColor=#e1d5e7;strokeColor=#9673a6;" vertex="1" parent="1">
          <mxGeometry x="740" y="120" width="10" height="960" as="geometry" />
        </mxCell>
        <mxCell id="24yQI8a9KALRh25tp-s9-11" value="Interrupt&lt;br&gt;Serrvice Routine" style="text;html=1;strokeColor=none;fillColor=none;align=center;verticalAlign=middle;whiteSpace=wrap;rounded=0;" vertex="1" parent="1">
          <mxGeometry x="760" y="120" width="60" height="40" as="geometry" />
        </mxCell>
        <mxCell id="24yQI8a9KALRh25tp-s9-30" style="edgeStyle=orthogonalEdgeStyle;rounded=0;orthogonalLoop=1;jettySize=auto;html=1;entryX=0.033;entryY=0.563;entryDx=0;entryDy=0;entryPerimeter=0;" edge="1" parent="1" source="24yQI8a9KALRh25tp-s9-14" target="24yQI8a9KALRh25tp-s9-8">
          <mxGeometry relative="1" as="geometry" />
        </mxCell>
        <mxCell id="24yQI8a9KALRh25tp-s9-14" value="LDR Voltage &lt;br&gt;&amp;gt; 200" style="rounded=0;whiteSpace=wrap;html=1;" vertex="1" parent="1">
          <mxGeometry x="80" y="640" width="80" height="40" as="geometry" />
        </mxCell>
        <mxCell id="24yQI8a9KALRh25tp-s9-15" value="" style="edgeStyle=segmentEdgeStyle;endArrow=classic;html=1;curved=0;rounded=0;endSize=8;startSize=8;entryX=0.5;entryY=0;entryDx=0;entryDy=0;" edge="1" parent="1" target="24yQI8a9KALRh25tp-s9-14">
          <mxGeometry width="50" height="50" relative="1" as="geometry">
            <mxPoint x="70" y="410" as="sourcePoint" />
            <mxPoint x="120" y="360" as="targetPoint" />
          </mxGeometry>
        </mxCell>
        <mxCell id="24yQI8a9KALRh25tp-s9-21" style="edgeStyle=orthogonalEdgeStyle;rounded=0;orthogonalLoop=1;jettySize=auto;html=1;exitX=0.5;exitY=1;exitDx=0;exitDy=0;entryX=0.5;entryY=0;entryDx=0;entryDy=0;" edge="1" parent="1" source="24yQI8a9KALRh25tp-s9-16" target="24yQI8a9KALRh25tp-s9-17">
          <mxGeometry relative="1" as="geometry" />
        </mxCell>
        <mxCell id="24yQI8a9KALRh25tp-s9-16" value="Servo and Ultrasonic" style="rounded=0;whiteSpace=wrap;html=1;" vertex="1" parent="1">
          <mxGeometry x="270" y="290" width="80" height="40" as="geometry" />
        </mxCell>
        <mxCell id="24yQI8a9KALRh25tp-s9-22" style="edgeStyle=orthogonalEdgeStyle;rounded=0;orthogonalLoop=1;jettySize=auto;html=1;exitX=0.5;exitY=1;exitDx=0;exitDy=0;entryX=0.5;entryY=0;entryDx=0;entryDy=0;" edge="1" parent="1" source="24yQI8a9KALRh25tp-s9-17" target="24yQI8a9KALRh25tp-s9-18">
          <mxGeometry relative="1" as="geometry" />
        </mxCell>
        <mxCell id="24yQI8a9KALRh25tp-s9-33" style="edgeStyle=orthogonalEdgeStyle;rounded=0;orthogonalLoop=1;jettySize=auto;html=1;entryX=-0.057;entryY=0.353;entryDx=0;entryDy=0;entryPerimeter=0;" edge="1" parent="1" source="24yQI8a9KALRh25tp-s9-17" target="24yQI8a9KALRh25tp-s9-8">
          <mxGeometry relative="1" as="geometry">
            <Array as="points">
              <mxPoint x="380" y="390" />
              <mxPoint x="380" y="459" />
            </Array>
          </mxGeometry>
        </mxCell>
        <mxCell id="24yQI8a9KALRh25tp-s9-17" value="Angle" style="rounded=0;whiteSpace=wrap;html=1;" vertex="1" parent="1">
          <mxGeometry x="270" y="370" width="80" height="40" as="geometry" />
        </mxCell>
        <mxCell id="24yQI8a9KALRh25tp-s9-25" style="edgeStyle=orthogonalEdgeStyle;rounded=0;orthogonalLoop=1;jettySize=auto;html=1;" edge="1" parent="1" source="24yQI8a9KALRh25tp-s9-18" target="24yQI8a9KALRh25tp-s9-24">
          <mxGeometry relative="1" as="geometry" />
        </mxCell>
        <mxCell id="24yQI8a9KALRh25tp-s9-31" style="edgeStyle=orthogonalEdgeStyle;rounded=0;orthogonalLoop=1;jettySize=auto;html=1;entryX=-0.022;entryY=0.375;entryDx=0;entryDy=0;entryPerimeter=0;" edge="1" parent="1" source="24yQI8a9KALRh25tp-s9-18" target="24yQI8a9KALRh25tp-s9-6">
          <mxGeometry relative="1" as="geometry">
            <Array as="points" />
          </mxGeometry>
        </mxCell>
        <mxCell id="24yQI8a9KALRh25tp-s9-18" value="Distance" style="rounded=0;whiteSpace=wrap;html=1;" vertex="1" parent="1">
          <mxGeometry x="270" y="460" width="80" height="40" as="geometry" />
        </mxCell>
        <mxCell id="24yQI8a9KALRh25tp-s9-19" value="" style="edgeStyle=segmentEdgeStyle;endArrow=classic;html=1;curved=0;rounded=0;endSize=8;startSize=8;entryX=0.5;entryY=0;entryDx=0;entryDy=0;" edge="1" parent="1" target="24yQI8a9KALRh25tp-s9-14">
          <mxGeometry width="50" height="50" relative="1" as="geometry">
            <mxPoint x="70" y="410" as="sourcePoint" />
            <mxPoint x="120" y="480" as="targetPoint" />
            <Array as="points">
              <mxPoint x="120" y="410" />
            </Array>
          </mxGeometry>
        </mxCell>
        <mxCell id="24yQI8a9KALRh25tp-s9-20" value="" style="edgeStyle=segmentEdgeStyle;endArrow=classic;html=1;curved=0;rounded=0;endSize=8;startSize=8;" edge="1" parent="1">
          <mxGeometry width="50" height="50" relative="1" as="geometry">
            <mxPoint x="260" y="230" as="sourcePoint" />
            <mxPoint x="310" y="290" as="targetPoint" />
            <Array as="points">
              <mxPoint x="310" y="230" />
            </Array>
          </mxGeometry>
        </mxCell>
        <mxCell id="24yQI8a9KALRh25tp-s9-32" style="edgeStyle=orthogonalEdgeStyle;rounded=0;orthogonalLoop=1;jettySize=auto;html=1;entryX=-0.05;entryY=0.469;entryDx=0;entryDy=0;entryPerimeter=0;" edge="1" parent="1" source="24yQI8a9KALRh25tp-s9-24" target="24yQI8a9KALRh25tp-s9-8">
          <mxGeometry relative="1" as="geometry" />
        </mxCell>
        <mxCell id="24yQI8a9KALRh25tp-s9-24" value="Object Detected?" style="rounded=0;whiteSpace=wrap;html=1;" vertex="1" parent="1">
          <mxGeometry x="270" y="550" width="80" height="40" as="geometry" />
        </mxCell>
        <mxCell id="24yQI8a9KALRh25tp-s9-29" style="edgeStyle=orthogonalEdgeStyle;rounded=0;orthogonalLoop=1;jettySize=auto;html=1;entryX=0.5;entryY=0;entryDx=0;entryDy=0;" edge="1" parent="1" source="24yQI8a9KALRh25tp-s9-26" target="24yQI8a9KALRh25tp-s9-28">
          <mxGeometry relative="1" as="geometry" />
        </mxCell>
        <mxCell id="24yQI8a9KALRh25tp-s9-26" value="Distance&amp;lt;30" style="rounded=0;whiteSpace=wrap;html=1;" vertex="1" parent="1">
          <mxGeometry x="420" y="290" width="80" height="40" as="geometry" />
        </mxCell>
        <mxCell id="24yQI8a9KALRh25tp-s9-27" value="" style="edgeStyle=segmentEdgeStyle;endArrow=classic;html=1;curved=0;rounded=0;endSize=8;startSize=8;" edge="1" parent="1">
          <mxGeometry width="50" height="50" relative="1" as="geometry">
            <mxPoint x="410" y="230" as="sourcePoint" />
            <mxPoint x="460" y="290" as="targetPoint" />
            <Array as="points">
              <mxPoint x="460" y="230" />
            </Array>
          </mxGeometry>
        </mxCell>
        <mxCell id="24yQI8a9KALRh25tp-s9-28" value="LED Blink" style="rounded=0;whiteSpace=wrap;html=1;" vertex="1" parent="1">
          <mxGeometry x="420" y="370" width="80" height="40" as="geometry" />
        </mxCell>
        <mxCell id="24yQI8a9KALRh25tp-s9-35" value="LED Control(Angle,DIstance)" style="rounded=0;whiteSpace=wrap;html=1;" vertex="1" parent="1">
          <mxGeometry x="580" y="290" width="140" height="40" as="geometry" />
        </mxCell>
        <mxCell id="24yQI8a9KALRh25tp-s9-37" value="" style="edgeStyle=segmentEdgeStyle;endArrow=classic;html=1;curved=0;rounded=0;endSize=8;startSize=8;entryX=0.529;entryY=-0.033;entryDx=0;entryDy=0;entryPerimeter=0;" edge="1" parent="1" target="24yQI8a9KALRh25tp-s9-35">
          <mxGeometry width="50" height="50" relative="1" as="geometry">
            <mxPoint x="570" y="230" as="sourcePoint" />
            <mxPoint x="620" y="180" as="targetPoint" />
          </mxGeometry>
        </mxCell>
        <mxCell id="24yQI8a9KALRh25tp-s9-38" style="edgeStyle=orthogonalEdgeStyle;rounded=0;orthogonalLoop=1;jettySize=auto;html=1;" edge="1" parent="1" source="24yQI8a9KALRh25tp-s9-2">
          <mxGeometry relative="1" as="geometry">
            <mxPoint x="740" y="800" as="targetPoint" />
            <Array as="points">
              <mxPoint x="740" y="800" />
            </Array>
          </mxGeometry>
        </mxCell>
        <mxCell id="24yQI8a9KALRh25tp-s9-39" value="&lt;font style=&quot;font-size: 14px;&quot;&gt;&lt;b&gt;When the Interrupt is received&lt;/b&gt;&lt;/font&gt;" style="edgeLabel;html=1;align=center;verticalAlign=middle;resizable=0;points=[];" vertex="1" connectable="0" parent="24yQI8a9KALRh25tp-s9-38">
          <mxGeometry x="-0.2184" y="-1" relative="1" as="geometry">
            <mxPoint x="-1" as="offset" />
          </mxGeometry>
        </mxCell>
        <mxCell id="24yQI8a9KALRh25tp-s9-40" value="" style="edgeStyle=segmentEdgeStyle;endArrow=classic;html=1;curved=0;rounded=0;endSize=8;startSize=8;" edge="1" parent="1">
          <mxGeometry width="50" height="50" relative="1" as="geometry">
            <mxPoint x="750" y="230" as="sourcePoint" />
            <mxPoint x="800" y="290" as="targetPoint" />
            <Array as="points">
              <mxPoint x="800" y="230" />
            </Array>
          </mxGeometry>
        </mxCell>
        <mxCell id="24yQI8a9KALRh25tp-s9-43" style="edgeStyle=orthogonalEdgeStyle;rounded=0;orthogonalLoop=1;jettySize=auto;html=1;entryX=0.5;entryY=0;entryDx=0;entryDy=0;" edge="1" parent="1" source="24yQI8a9KALRh25tp-s9-41" target="24yQI8a9KALRh25tp-s9-42">
          <mxGeometry relative="1" as="geometry" />
        </mxCell>
        <mxCell id="24yQI8a9KALRh25tp-s9-41" value="GPS Location&lt;br&gt;(LAT,LON)" style="rounded=0;whiteSpace=wrap;html=1;" vertex="1" parent="1">
          <mxGeometry x="760" y="290" width="80" height="40" as="geometry" />
        </mxCell>
        <mxCell id="24yQI8a9KALRh25tp-s9-45" style="edgeStyle=orthogonalEdgeStyle;rounded=0;orthogonalLoop=1;jettySize=auto;html=1;entryX=0.5;entryY=0;entryDx=0;entryDy=0;" edge="1" parent="1" source="24yQI8a9KALRh25tp-s9-42" target="24yQI8a9KALRh25tp-s9-44">
          <mxGeometry relative="1" as="geometry" />
        </mxCell>
        <mxCell id="24yQI8a9KALRh25tp-s9-42" value="GSM" style="rounded=0;whiteSpace=wrap;html=1;" vertex="1" parent="1">
          <mxGeometry x="760" y="360" width="80" height="40" as="geometry" />
        </mxCell>
        <mxCell id="24yQI8a9KALRh25tp-s9-44" value="Emergency contact" style="rounded=0;whiteSpace=wrap;html=1;" vertex="1" parent="1">
          <mxGeometry x="760" y="440" width="80" height="40" as="geometry" />
        </mxCell>
      </root>
    </mxGraphModel>
  </diagram>
</mxfile>
